<svg id="Capa_1" data-name="Capa 1" xmlns="http://www.w3.org/2000/svg" viewBox="0 0 287.25 285.47"><defs><style>.cls-1,.cls-2{fill:#e62c36;}.cls-2,.cls-3,.cls-4{fill-rule:evenodd;}.cls-3{fill:#0983c4;}.cls-4{fill:#3cb2e7;}.cls-5{font-size:24.26px;fill:#506567;font-family:Myriad Pro;font-weight:700;}.cls-6{letter-spacing:-1px;}.cls-7{letter-spacing:-2px;}</style></defs><title>logo</title><polygon class="cls-1" points="110.6 134.96 106.81 116.47 101.53 116.45 93.44 154.99 82.48 84.83 77.2 84.64 66.03 133.37 41.19 133.37 41.19 138.76 70.32 138.76 79.32 99.48 90.39 170.36 95.69 170.5 104.14 130.26 106.21 140.34 140.66 140.34 140.66 134.96 110.6 134.96"/><rect class="cls-1" x="211.72" y="134.96" width="35.03" height="5.39"/><path class="cls-2" d="M154.3,128.4a9.29,9.29,0,0,1,11.07,9.09c0.12,8.1-8.28,11.49-13.88,8.6a9.59,9.59,0,0,1-4.8-10.91A9.46,9.46,0,0,1,154.3,128.4Z" transform="translate(-10.25 -61.12)"/><path class="cls-1" d="M156,128.27a9.42,9.42,0,1,1-.18,18.84,9.39,9.39,0,0,1-4.31-1,9.59,9.59,0,0,1-4.8-10.91,9.46,9.46,0,0,1,7.61-6.78,11.07,11.07,0,0,1,1.68-.13m0-.83h0a11.91,11.91,0,0,0-1.8.14,10.35,10.35,0,0,0-8.28,7.4,10.46,10.46,0,0,0,5.22,11.84,10.25,10.25,0,0,0,4.69,1.11,10.67,10.67,0,0,0,7.58-3.09,10.31,10.31,0,0,0-7.4-17.4h0Z" transform="translate(-10.25 -61.12)"/><circle class="cls-1" cx="193.74" cy="61.87" r="9.85"/><path class="cls-1" d="M204,113.13a9.85,9.85,0,1,1-9.85,9.85,9.85,9.85,0,0,1,9.85-9.85m0-.83A10.68,10.68,0,1,0,214.67,123,10.69,10.69,0,0,0,204,112.31h0Z" transform="translate(-10.25 -61.12)"/><circle class="cls-1" cx="184.33" cy="114.24" r="7.09"/><path class="cls-1" d="M194.58,168.27a7.09,7.09,0,1,1-7.09,7.08,7.08,7.08,0,0,1,7.09-7.08m0-.83a7.91,7.91,0,1,0,7.91,7.91,7.92,7.92,0,0,0-7.91-7.91h0Z" transform="translate(-10.25 -61.12)"/><path class="cls-2" d="M173.46,154.77A21.77,21.77,0,0,0,165.7,151c-8.45-2.11-17.89.11-22.86,7.56a43,43,0,0,0-5.25,11.33c-2,6.43-.12,14.5,2.79,20.29a82,82,0,0,0,8.24,12.45c6.15,8.12,13.89,15.11,21.74,21.54q4.47,3.67,9.15,7.07,2.52,1.84,5.08,3.62c1.59,1.12,3.9,2.18,5.21,3.61,0,0-30.15-33-34.8-41.28,0,0-12.55-19.83-1.62-32,0,0,14.77-11.94,21.45,8.09,0,0,2,9.11,5.06.41,0.83-2.37.49-6.2,0.09-8.65a15.17,15.17,0,0,0-3.22-7.2A19.26,19.26,0,0,0,173.46,154.77Z" transform="translate(-10.25 -61.12)"/><path class="cls-1" d="M159.58,150.29a25.34,25.34,0,0,1,6.12.76,21.77,21.77,0,0,1,7.76,3.72,19.26,19.26,0,0,1,3.3,3.16,15.17,15.17,0,0,1,3.22,7.2c0.4,2.44.73,6.28-.09,8.65-1,2.81-1.86,3.77-2.59,3.77-1.54,0-2.47-4.17-2.47-4.17-3-9.14-7.78-11.62-12-11.62-5.06,0-9.43,3.53-9.43,3.53-10.93,12.14,1.62,32,1.62,32,4.59,8.18,34,40.37,34.79,41.26-1.31-1.42-3.61-2.48-5.19-3.59s-3.4-2.4-5.08-3.62q-4.67-3.42-9.15-7.07c-7.85-6.44-15.58-13.43-21.74-21.54a82,82,0,0,1-8.24-12.45c-2.92-5.79-4.76-13.87-2.79-20.29a43,43,0,0,1,5.25-11.33c3.79-5.68,10.17-8.32,16.74-8.32m30.21,88.23,0,0,0,0m-30.21-89.05c-7.39,0-13.74,3.17-17.42,8.69a43.83,43.83,0,0,0-5.35,11.55c-2.14,7,.07,15.38,2.84,20.9A82.42,82.42,0,0,0,148,203.18c6.66,8.79,15.19,16.2,21.87,21.68,2.86,2.34,6,4.73,9.19,7.1,1.6,1.17,3.26,2.36,5.09,3.63,0.55,0.39,1.17.76,1.82,1.15a15.25,15.25,0,0,1,3.24,2.33l0.1,0.11,0.15,0.09,4,2-3-3.29-0.59.51,0.57-.53c-0.3-.33-30.09-32.93-34.68-41.1v0c-0.12-.19-12-19.39-1.75-30.92,0.48-.37,4.44-3.31,8.86-3.31,5,0,8.78,3.71,11.23,11,0.27,1.18,1.24,4.77,3.26,4.77,1.29,0,2.33-1.33,3.37-4.32,1-2.82.42-7.27,0.13-9.05a16.09,16.09,0,0,0-3.39-7.59,20,20,0,0,0-3.44-3.3,22.55,22.55,0,0,0-8.06-3.87,26.15,26.15,0,0,0-6.32-.78h0Z" transform="translate(-10.25 -61.12)"/><path class="cls-2" d="M181.88,147.62a27.08,27.08,0,0,1,2.47-2.92,29.07,29.07,0,0,1,16.83-7.44c5.6-.58,10.7.63,15.93,2.53,0,0,26.3,9.53,15.38,45.33,0,0-14.37,33.59-40.87,52.61,0,0,33.59-37.84,32.38-68.59-0.41-10.5-10.1-20.61-20.5-21.06-6.31-.27-12.44,2.09-17.57,5.6-1.44,1-4.14,3.73-6,3.57C175.76,156.9,179.13,151.25,181.88,147.62Z" transform="translate(-10.25 -61.12)"/><path class="cls-1" d="M204,137.12a38.19,38.19,0,0,1,13.11,2.67s26.3,9.53,15.38,45.33c0,0-14.37,33.59-40.87,52.61,0,0,33.59-37.84,32.38-68.59-0.41-10.5-10.1-20.61-20.5-21.06l-1,0a29.9,29.9,0,0,0-16.59,5.62c-1.4,1-4,3.58-5.88,3.58h-0.16c-4.12-.34-0.75-6,2-9.63a27.08,27.08,0,0,1,2.47-2.92,29.07,29.07,0,0,1,16.83-7.44,27.53,27.53,0,0,1,2.82-.14m0-.83h0a28.51,28.51,0,0,0-2.9.15,30,30,0,0,0-17.3,7.65,27.65,27.65,0,0,0-2.57,3c-2.32,3.07-4.87,7.19-3.86,9.46a2.67,2.67,0,0,0,2.44,1.49H180c1.7,0,3.6-1.54,5.13-2.78,0.46-.37.89-0.72,1.21-0.94,3.66-2.5,9.43-5.47,16.13-5.47l0.94,0c9.92,0.42,19.31,10.08,19.71,20.26,1.18,30.07-31.83,67.64-32.17,68l-4.91,5.53,6-4.31c26.39-18.94,41-52.62,41.15-53l0,0v0c5.74-18.83,1.15-30.41-3.71-36.82A29.9,29.9,0,0,0,217.39,139,38.53,38.53,0,0,0,204,136.29h0Z" transform="translate(-10.25 -61.12)"/><path class="cls-2" d="M187.42,217.93c-7.72-4.58-12.61-15-8.58-23.49,0,0,4.4-12.87,17.7-10.19,6.05,1.23,10.94,7.5,11.71,13.37,1.35,10.17-4.42,19.23-11,26.42a52,52,0,0,1-3.83,3.78c-1.32,1.17-3.25,2.18-4.37,3.51,0,0,19.73-23.7,12.87-35.18-1.45-2.43-4-4.82-6.93-5.17-4.57-.55-8.25,3.35-9.77,7.2s-0.18,8.27,1.79,11.7C187,209.89,193.75,221.68,187.42,217.93Z" transform="translate(-10.25 -61.12)"/><path class="cls-1" d="M193,183.88a17.89,17.89,0,0,1,3.53.37c6.05,1.23,10.94,7.5,11.71,13.37,1.35,10.17-4.42,19.23-11,26.42a52,52,0,0,1-3.83,3.78c-1.32,1.17-3.25,2.18-4.37,3.51,0,0,19.73-23.7,12.87-35.18-1.45-2.43-4-4.82-6.93-5.17a7.43,7.43,0,0,0-.86-0.05c-4.17,0-7.48,3.64-8.91,7.25-1.5,3.79-.18,8.27,1.79,11.7,0,0,5,8.78,2.35,8.78a4.23,4.23,0,0,1-1.92-.74c-7.72-4.58-12.61-15-8.58-23.49,0,0,3.61-10.56,14.17-10.56m0-.83c-10.64,0-14.63,10.25-14.93,11.07-4.36,9.29,1.23,20,8.92,24.52a4.85,4.85,0,0,0,2.34.85,1.5,1.5,0,0,0,1.36-.74c1.05-1.82-1.74-7.09-3-9.27-1.08-1.89-3.41-6.74-1.74-11,1.32-3.35,4.35-6.73,8.14-6.73a6.37,6.37,0,0,1,.76,0c2.75,0.33,5.13,2.77,6.32,4.77,6.47,10.82-12.6,34-12.8,34.23l1.27,1.06a13.11,13.11,0,0,1,2.44-2,21,21,0,0,0,1.84-1.4,52.24,52.24,0,0,0,3.89-3.84c8.72-9.48,12.4-18.34,11.24-27.09-0.77-5.84-5.61-12.71-12.37-14.07a18.84,18.84,0,0,0-3.69-.38h0Z" transform="translate(-10.25 -61.12)"/><path class="cls-3" d="M72.9,84.3A143.65,143.65,0,1,0,297.5,207.65,135.57,135.57,0,1,1,72.9,84.3h0Z" transform="translate(-10.25 -61.12)"/><path class="cls-4" d="M233.42,282.45A121.21,121.21,0,1,0,43.9,178.36,114.4,114.4,0,1,1,233.42,282.45h0Z" transform="translate(-10.25 -61.12)"/><text class="cls-5" transform="translate(48.47 203.16)"><tspan class="cls-6">F</tspan><tspan x="11.16" y="0">AMI</tspan><tspan class="cls-7" x="54.5" y="0">L</tspan><tspan x="64.72" y="0">Y MEDI</tspan><tspan x="141.51" y="0">C</tspan><tspan x="156.19" y="0">AL</tspan><tspan x="49.87" y="29.11">CENTER</tspan></text></svg>