<?xml version="1.0" encoding="UTF-8"?>
<!DOCTYPE svg PUBLIC "-//W3C//DTD SVG 1.1//EN" "http://www.w3.org/Graphics/SVG/1.1/DTD/svg11.dtd">
<svg xmlns="http://www.w3.org/2000/svg" version="1.1" width="287px" height="285px" style="shape-rendering:geometricPrecision; text-rendering:geometricPrecision; image-rendering:optimizeQuality; fill-rule:evenodd; clip-rule:evenodd" xmlns:xlink="http://www.w3.org/1999/xlink">
<g><path style="opacity:0.926" fill="#fefffe" d="M 138.5,-0.5 C 148.833,-0.5 159.167,-0.5 169.5,-0.5C 223.848,9.34118 258.348,41.0078 273,94.5C 281.746,146.145 265.579,187.978 224.5,220C 223.833,220.667 223.167,220.667 222.5,220C 227.71,214.294 232.71,208.461 237.5,202.5C 258.523,172.708 264.356,140.041 255,104.5C 239.855,58.3541 208.355,31.1875 160.5,23C 105.063,19.1219 65.2296,41.9552 41,91.5C 37.8599,99.7424 35.1932,108.076 33,116.5C 35.3747,72.9032 54.8747,39.4032 91.5,16C 106.342,7.777 122.008,2.277 138.5,-0.5 Z"/></g>
<g><path style="opacity:0.937" fill="#fefffe" d="M 286.5,145.5 C 286.5,149.5 286.5,153.5 286.5,157.5C 276.591,218.114 242.591,258.614 184.5,279C 176.123,281.278 167.79,283.111 159.5,284.5C 148.5,284.5 137.5,284.5 126.5,284.5C 63.9287,274.437 23.0953,239.104 4,178.5C 2.28098,171.069 0.780978,163.735 -0.5,156.5C -0.5,146.167 -0.5,135.833 -0.5,125.5C 5.08626,82.4849 25.4196,48.3182 60.5,23C 61.1667,22.3333 61.8333,22.3333 62.5,23C 21.9666,62.9601 9.46655,110.46 25,165.5C 44.9472,218.108 82.7806,248.608 138.5,257C 203.871,260.247 250.371,232.414 278,173.5C 281.382,164.199 284.215,154.866 286.5,145.5 Z M 63.5,188.5 C 62.6661,189.748 61.3328,190.415 59.5,190.5C 58.1667,190.167 56.8333,189.833 55.5,189.5C 58.0865,188.52 60.7531,188.187 63.5,188.5 Z M 186.5,188.5 C 187.833,188.5 189.167,188.5 190.5,188.5C 190.5,191.833 190.5,195.167 190.5,198.5C 189.167,198.5 187.833,198.5 186.5,198.5C 186.5,195.167 186.5,191.833 186.5,188.5 Z M 198.5,188.5 C 199.5,188.5 200.5,188.5 201.5,188.5C 201.5,191.833 201.5,195.167 201.5,198.5C 200.5,198.5 199.5,198.5 198.5,198.5C 198.5,195.167 198.5,191.833 198.5,188.5 Z M 68.5,190.5 C 69.339,191.641 70.0057,192.974 70.5,194.5C 69.675,195.386 68.675,195.719 67.5,195.5C 67.6287,193.784 67.962,192.117 68.5,190.5 Z M 212.5,190.5 C 213.339,191.641 214.006,192.974 214.5,194.5C 213.675,195.386 212.675,195.719 211.5,195.5C 211.629,193.784 211.962,192.117 212.5,190.5 Z M 193.5,217.5 C 198.833,218.5 198.833,219.5 193.5,220.5C 193.5,219.5 193.5,218.5 193.5,217.5 Z"/></g>
<g><path style="opacity:0.869" fill="#fefffe" d="M 188.5,50.5 C 200.615,49.4425 205.449,54.7758 203,66.5C 198.313,72.9353 192.479,74.1019 185.5,70C 179.84,62.4799 180.84,55.9799 188.5,50.5 Z"/></g>
<g><path style="opacity:0.865" fill="#fefffe" d="M 140.5,65.5 C 151.989,64.1551 156.823,69.1551 155,80.5C 152.081,86.0248 147.581,87.8581 141.5,86C 134.943,83.3146 132.777,78.4812 135,71.5C 136.36,68.9774 138.193,66.9774 140.5,65.5 Z"/></g>
<g><path style="opacity:0.843" fill="#fefffe" d="M 185.5,74.5 C 209.527,72.3722 222.86,83.2056 225.5,107C 225.27,116.09 222.936,124.59 218.5,132.5C 227.81,133.498 237.143,133.832 246.5,133.5C 246.5,135.833 246.5,138.167 246.5,140.5C 235.495,140.333 224.495,140.5 213.5,141C 203.377,158.427 190.543,171.927 175,181.5C 174.837,179.613 175.671,178.113 177.5,177C 161.838,167.507 148.172,155.674 136.5,141.5C 126.183,140.668 115.849,140.168 105.5,140C 104.751,138.266 104.251,136.433 104,134.5C 100.835,145.644 98.1688,156.977 96,168.5C 94.2458,170.25 92.0792,170.917 89.5,170.5C 85.9551,148.187 82.4551,125.854 79,103.5C 75.6028,114.975 72.7695,126.641 70.5,138.5C 60.5,138.5 50.5,138.5 40.5,138.5C 40.5,136.5 40.5,134.5 40.5,132.5C 48.8333,132.5 57.1667,132.5 65.5,132.5C 68.6798,116.445 72.1798,100.445 76,84.5C 78.0408,83.5769 80.2075,83.2436 82.5,83.5C 85.8589,105.845 89.3589,128.178 93,150.5C 95.3104,139.113 97.8104,127.78 100.5,116.5C 102.695,115.231 104.861,115.231 107,116.5C 107.977,121.886 109.144,127.22 110.5,132.5C 117.142,133.664 123.808,133.831 130.5,133C 122.364,120.415 122.53,107.915 131,95.5C 138.704,87.5367 147.87,85.37 158.5,89C 161.102,89.8834 163.269,91.3834 165,93.5C 168.866,83.7948 175.699,77.4615 185.5,74.5 Z M 197.5,148.5 C 201.544,136.456 198.211,127.289 187.5,121C 192.518,117.278 193.351,112.778 190,107.5C 179.74,103.099 175.073,106.432 176,117.5C 177.022,118.354 177.855,119.354 178.5,120.5C 164.57,128.143 161.736,138.81 170,152.5C 172.454,155.803 175.621,157.637 179.5,158C 180.554,156.612 180.72,155.112 180,153.5C 178.013,149.032 176.18,144.532 174.5,140C 180.296,127.366 185.962,127.366 191.5,140C 190.41,144.604 188.91,149.104 187,153.5C 183.818,158.677 180.651,163.844 177.5,169C 177.85,170.257 178.517,170.591 179.5,170C 182.331,167.999 184.997,165.833 187.5,163.5C 185.584,168.228 182.584,171.728 178.5,174C 167.626,162.128 157.126,149.962 147,137.5C 141.604,129.646 139.27,120.979 140,111.5C 142.406,103.879 147.572,100.712 155.5,102C 159.721,105.605 162.554,110.105 164,115.5C 166.789,118.129 168.789,117.462 170,113.5C 170.999,107.981 170.499,102.647 168.5,97.5C 174.277,93.2782 180.61,90.1115 187.5,88C 205.765,88.6318 213.598,98.1318 211,116.5C 208.519,128.136 204.019,138.802 197.5,148.5 Z"/></g>
<g><path style="opacity:0.849" fill="#fefffe" d="M 63.5,188.5 C 64.2485,187.469 64.9152,186.302 65.5,185C 67.9018,184.186 70.2351,184.353 72.5,185.5C 74.5,190.833 76.5,196.167 78.5,201.5C 76.604,202.466 74.604,202.799 72.5,202.5C 72.5,201.5 72.5,200.5 72.5,199.5C 67.8261,199.748 63.4928,200.748 59.5,202.5C 59.7563,200.063 60.4229,197.729 61.5,195.5C 59.604,194.534 57.604,194.201 55.5,194.5C 55.5,197.167 55.5,199.833 55.5,202.5C 53.8333,202.5 52.1667,202.5 50.5,202.5C 50.5,196.5 50.5,190.5 50.5,184.5C 54.8333,184.5 59.1667,184.5 63.5,184.5C 63.5,185.833 63.5,187.167 63.5,188.5 Z M 63.5,188.5 C 60.7531,188.187 58.0865,188.52 55.5,189.5C 56.8333,189.833 58.1667,190.167 59.5,190.5C 61.3328,190.415 62.6661,189.748 63.5,188.5 Z M 68.5,190.5 C 67.962,192.117 67.6287,193.784 67.5,195.5C 68.675,195.719 69.675,195.386 70.5,194.5C 70.0057,192.974 69.339,191.641 68.5,190.5 Z"/></g>
<g><path style="opacity:0.848" fill="#fefffe" d="M 80.5,184.5 C 82.924,184.192 85.2573,184.526 87.5,185.5C 89.5316,193.465 91.5316,193.465 93.5,185.5C 95.7427,184.526 98.076,184.192 100.5,184.5C 100.5,190.5 100.5,196.5 100.5,202.5C 98.8333,202.5 97.1667,202.5 95.5,202.5C 95.6646,199.482 95.498,196.482 95,193.5C 92.1804,201.445 89.1804,201.445 86,193.5C 85.502,196.482 85.3354,199.482 85.5,202.5C 83.8333,202.5 82.1667,202.5 80.5,202.5C 80.5,196.5 80.5,190.5 80.5,184.5 Z"/></g>
<g><path style="opacity:0.951" fill="#fefffe" d="M 104.5,184.5 C 106.167,184.5 107.833,184.5 109.5,184.5C 109.5,189.167 109.5,193.833 109.5,198.5C 112.167,198.5 114.833,198.5 117.5,198.5C 117.5,199.833 117.5,201.167 117.5,202.5C 113.167,202.5 108.833,202.5 104.5,202.5C 104.5,196.5 104.5,190.5 104.5,184.5 Z"/></g>
<g><path style="opacity:0.784" fill="#fefffe" d="M 111.5,185.5 C 115.875,183.664 119.042,184.997 121,189.5C 122.771,184.792 125.937,183.458 130.5,185.5C 128.862,188.304 127.029,190.971 125,193.5C 124.502,196.482 124.335,199.482 124.5,202.5C 122.5,202.5 120.5,202.5 118.5,202.5C 119.171,195.519 116.838,189.852 111.5,185.5 Z"/></g>
<g><path style="opacity:0.848" fill="#fefffe" d="M 140.5,184.5 C 142.924,184.192 145.257,184.526 147.5,185.5C 149.532,193.465 151.532,193.465 153.5,185.5C 155.743,184.526 158.076,184.192 160.5,184.5C 160.5,190.5 160.5,196.5 160.5,202.5C 158.833,202.5 157.167,202.5 155.5,202.5C 155.665,199.482 155.498,196.482 155,193.5C 152.18,201.445 149.18,201.445 146,193.5C 145.502,196.482 145.335,199.482 145.5,202.5C 143.833,202.5 142.167,202.5 140.5,202.5C 140.5,196.5 140.5,190.5 140.5,184.5 Z"/></g>
<g><path style="opacity:0.881" fill="#fefffe" d="M 164.5,184.5 C 168.833,184.5 173.167,184.5 177.5,184.5C 177.5,185.833 177.5,187.167 177.5,188.5C 166.833,189.167 166.833,189.833 177.5,190.5C 177.5,191.833 177.5,193.167 177.5,194.5C 174.833,194.5 172.167,194.5 169.5,194.5C 169.5,195.833 169.5,197.167 169.5,198.5C 172.167,198.5 174.833,198.5 177.5,198.5C 177.5,199.833 177.5,201.167 177.5,202.5C 173.167,202.5 168.833,202.5 164.5,202.5C 164.5,196.5 164.5,190.5 164.5,184.5 Z"/></g>
<g><path style="opacity:0.88" fill="#fefffe" d="M 181.5,184.5 C 189.869,185.536 198.203,185.536 206.5,184.5C 206.162,193.664 207.162,193.83 209.5,185C 211.902,184.186 214.235,184.353 216.5,185.5C 218.5,190.833 220.5,196.167 222.5,201.5C 220.604,202.466 218.604,202.799 216.5,202.5C 216.5,201.5 216.5,200.5 216.5,199.5C 213.319,199.002 210.653,199.835 208.5,202C 199.464,201.47 190.464,201.636 181.5,202.5C 181.5,196.5 181.5,190.5 181.5,184.5 Z M 186.5,188.5 C 186.5,191.833 186.5,195.167 186.5,198.5C 187.833,198.5 189.167,198.5 190.5,198.5C 190.5,195.167 190.5,191.833 190.5,188.5C 189.167,188.5 187.833,188.5 186.5,188.5 Z M 198.5,188.5 C 198.5,191.833 198.5,195.167 198.5,198.5C 199.5,198.5 200.5,198.5 201.5,198.5C 201.5,195.167 201.5,191.833 201.5,188.5C 200.5,188.5 199.5,188.5 198.5,188.5 Z M 212.5,190.5 C 211.962,192.117 211.629,193.784 211.5,195.5C 212.675,195.719 213.675,195.386 214.5,194.5C 214.006,192.974 213.339,191.641 212.5,190.5 Z"/></g>
<g><path style="opacity:0.906" fill="#fefffe" d="M 237.5,202.5 C 233.167,202.5 228.833,202.5 224.5,202.5C 224.5,196.5 224.5,190.5 224.5,184.5C 226.167,184.5 227.833,184.5 229.5,184.5C 229.5,189.167 229.5,193.833 229.5,198.5C 232.167,198.5 234.833,198.5 237.5,198.5C 237.5,199.833 237.5,201.167 237.5,202.5 Z"/></g>
<g><path style="opacity:0.776" fill="#fefffe" d="M 103.5,213.5 C 106.85,213.335 110.183,213.502 113.5,214C 114.38,215.356 114.714,216.856 114.5,218.5C 109.346,216.117 105.68,217.451 103.5,222.5C 105.68,227.549 109.346,228.883 114.5,226.5C 114.714,228.144 114.38,229.644 113.5,231C 102.347,233.837 97.5138,229.671 99,218.5C 100.025,216.313 101.525,214.646 103.5,213.5 Z"/></g>
<g><path style="opacity:0.881" fill="#fefffe" d="M 117.5,213.5 C 121.833,213.5 126.167,213.5 130.5,213.5C 130.5,214.833 130.5,216.167 130.5,217.5C 119.833,218.167 119.833,218.833 130.5,219.5C 130.5,220.833 130.5,222.167 130.5,223.5C 127.833,223.5 125.167,223.5 122.5,223.5C 122.5,224.833 122.5,226.167 122.5,227.5C 125.167,227.5 127.833,227.5 130.5,227.5C 130.5,228.833 130.5,230.167 130.5,231.5C 126.167,231.5 121.833,231.5 117.5,231.5C 117.5,225.5 117.5,219.5 117.5,213.5 Z"/></g>
<g><path style="opacity:0.804" fill="#fefffe" d="M 134.5,213.5 C 136.527,213.338 138.527,213.505 140.5,214C 142.127,216.754 143.627,219.588 145,222.5C 145.498,219.518 145.665,216.518 145.5,213.5C 147.5,213.5 149.5,213.5 151.5,213.5C 151.5,219.5 151.5,225.5 151.5,231.5C 149.143,231.663 146.81,231.497 144.5,231C 142.873,228.246 141.373,225.412 140,222.5C 139.502,225.482 139.335,228.482 139.5,231.5C 137.833,231.5 136.167,231.5 134.5,231.5C 134.5,225.5 134.5,219.5 134.5,213.5 Z"/></g>
<g><path style="opacity:0.812" fill="#fefffe" d="M 152.5,213.5 C 158.167,213.5 163.833,213.5 169.5,213.5C 169.5,214.833 169.5,216.167 169.5,217.5C 167.5,217.5 165.5,217.5 163.5,217.5C 163.5,222.167 163.5,226.833 163.5,231.5C 161.5,231.5 159.5,231.5 157.5,231.5C 157.5,226.833 157.5,222.167 157.5,217.5C 155.833,217.5 154.167,217.5 152.5,217.5C 152.5,216.167 152.5,214.833 152.5,213.5 Z"/></g>
<g><path style="opacity:0.881" fill="#fefffe" d="M 171.5,213.5 C 175.833,213.5 180.167,213.5 184.5,213.5C 184.5,214.833 184.5,216.167 184.5,217.5C 173.833,218.167 173.833,218.833 184.5,219.5C 184.5,220.833 184.5,222.167 184.5,223.5C 181.833,223.5 179.167,223.5 176.5,223.5C 176.5,224.833 176.5,226.167 176.5,227.5C 179.167,227.5 181.833,227.5 184.5,227.5C 184.5,228.833 184.5,230.167 184.5,231.5C 180.167,231.5 175.833,231.5 171.5,231.5C 171.5,225.5 171.5,219.5 171.5,213.5 Z"/></g>
<g><path style="opacity:0.852" fill="#fefffe" d="M 188.5,213.5 C 192.514,213.334 196.514,213.501 200.5,214C 203.082,216.958 203.082,219.958 200.5,223C 202.417,225.498 204.084,228.165 205.5,231C 200.946,232.412 198.112,230.912 197,226.5C 196,225.833 195,225.167 194,224.5C 193.503,226.81 193.337,229.143 193.5,231.5C 191.833,231.5 190.167,231.5 188.5,231.5C 188.5,225.5 188.5,219.5 188.5,213.5 Z M 193.5,217.5 C 193.5,218.5 193.5,219.5 193.5,220.5C 198.833,219.5 198.833,218.5 193.5,217.5 Z"/></g>
</svg>
